<?xml version="1.0" standalone="no"?>
<!DOCTYPE svg PUBLIC "-//W3C//DTD SVG 20010904//EN"
 "http://www.w3.org/TR/2001/REC-SVG-20010904/DTD/svg10.dtd">
<svg version="1.0" xmlns="http://www.w3.org/2000/svg"
 width="81.000000pt" height="81.000000pt" viewBox="0 0 81.000000 81.000000"
 preserveAspectRatio="xMidYMid meet">
<metadata>
Created by potrace 1.11, written by Peter Selinger 2001-2013
</metadata>
<g transform="translate(0.000000,81.000000) scale(0.100000,-0.100000)"
fill="#000000" stroke="none">
<path d="M70 687 c35 -78 97 -209 190 -402 39 -82 81 -172 92 -198 12 -26 24
-46 28 -45 5 2 88 79 185 173 97 93 182 173 188 177 8 5 2 21 -19 50 -16 24
-59 85 -93 136 -35 50 -67 92 -70 92 -4 0 -18 -33 -31 -74 -29 -87 -4 -88
-215 16 -82 41 -180 88 -217 105 l-66 31 28 -61z m353 -166 l267 -130 -127
-125 c-71 -68 -129 -123 -130 -122 -1 1 20 65 47 143 42 122 47 142 33 148 -9
3 -19 2 -23 -2 -3 -4 -28 -74 -55 -155 -28 -82 -53 -148 -56 -148 -3 0 -16 24
-29 53 -13 28 -52 111 -86 182 -34 72 -76 162 -94 200 -18 39 -37 78 -42 88
-8 16 -7 17 9 8 11 -5 139 -68 286 -140z m216 -8 c28 -40 49 -73 46 -73 -2 0
-34 14 -70 32 -55 27 -64 35 -59 53 13 41 25 68 28 64 2 -2 26 -37 55 -76z"/>
</g>
</svg>
